<mxfile host="app.diagrams.net" agent="Mozilla/5.0 (Windows NT 10.0; Win64; x64; rv:132.0) Gecko/20100101 Firefox/132.0" version="24.8.6">
  <diagram name="Page-1" id="A5iv56sn1HiEhQ4rKPeU">
    <mxGraphModel dx="922" dy="492" grid="0" gridSize="10" guides="1" tooltips="1" connect="1" arrows="1" fold="1" page="1" pageScale="1" pageWidth="827" pageHeight="1169" math="0" shadow="0">
      <root>
        <mxCell id="0" />
        <mxCell id="1" parent="0" />
        <mxCell id="qdV7-tY0-xVl_rMdB6zt-3" value="" style="shape=cube;whiteSpace=wrap;html=1;boundedLbl=1;backgroundOutline=1;darkOpacity=0.05;darkOpacity2=0.1;fontSize=14;" parent="1" vertex="1">
          <mxGeometry x="170" y="560" width="60" height="190" as="geometry" />
        </mxCell>
        <mxCell id="qdV7-tY0-xVl_rMdB6zt-5" value="" style="shape=cube;whiteSpace=wrap;html=1;boundedLbl=1;backgroundOutline=1;darkOpacity=0.05;darkOpacity2=0.1;size=50;fontSize=14;" parent="1" vertex="1">
          <mxGeometry x="90" y="530" width="50" height="240" as="geometry" />
        </mxCell>
        <mxCell id="qdV7-tY0-xVl_rMdB6zt-6" value="218x218x42" style="text;html=1;align=center;verticalAlign=middle;whiteSpace=wrap;rounded=0;fontSize=14;" parent="1" vertex="1">
          <mxGeometry x="180" y="760" width="50" height="20" as="geometry" />
        </mxCell>
        <mxCell id="qdV7-tY0-xVl_rMdB6zt-7" value="224x224x3" style="text;html=1;align=center;verticalAlign=middle;whiteSpace=wrap;rounded=0;fontSize=14;" parent="1" vertex="1">
          <mxGeometry x="100" y="780" width="50" height="20" as="geometry" />
        </mxCell>
        <mxCell id="qdV7-tY0-xVl_rMdB6zt-8" value="" style="shape=cube;whiteSpace=wrap;html=1;boundedLbl=1;backgroundOutline=1;darkOpacity=0.05;darkOpacity2=0.1;size=10;fontSize=14;" parent="1" vertex="1">
          <mxGeometry x="265" y="590" width="40" height="130" as="geometry" />
        </mxCell>
        <mxCell id="qdV7-tY0-xVl_rMdB6zt-9" value="54x54x42" style="text;html=1;align=center;verticalAlign=middle;whiteSpace=wrap;rounded=0;fontSize=14;" parent="1" vertex="1">
          <mxGeometry x="260" y="730" width="50" height="20" as="geometry" />
        </mxCell>
        <mxCell id="qdV7-tY0-xVl_rMdB6zt-13" value="&lt;div style=&quot;font-size: 14px;&quot;&gt;9x9x80&lt;/div&gt;" style="text;html=1;align=center;verticalAlign=middle;whiteSpace=wrap;rounded=0;fontSize=14;" parent="1" vertex="1">
          <mxGeometry x="540" y="690" width="50" height="20" as="geometry" />
        </mxCell>
        <mxCell id="qdV7-tY0-xVl_rMdB6zt-15" value="&lt;div style=&quot;font-size: 14px;&quot;&gt;12x12x120&lt;/div&gt;" style="text;html=1;align=center;verticalAlign=middle;whiteSpace=wrap;rounded=0;fontSize=14;" parent="1" vertex="1">
          <mxGeometry x="460" y="710" width="50" height="20" as="geometry" />
        </mxCell>
        <mxCell id="qdV7-tY0-xVl_rMdB6zt-16" value="" style="shape=cube;whiteSpace=wrap;html=1;boundedLbl=1;backgroundOutline=1;darkOpacity=0.05;darkOpacity2=0.1;size=10;fontSize=14;" parent="1" vertex="1">
          <mxGeometry x="330" y="590" width="80" height="130" as="geometry" />
        </mxCell>
        <mxCell id="qdV7-tY0-xVl_rMdB6zt-17" value="54x54x120" style="text;html=1;align=center;verticalAlign=middle;whiteSpace=wrap;rounded=0;fontSize=14;" parent="1" vertex="1">
          <mxGeometry x="345" y="726" width="50" height="20" as="geometry" />
        </mxCell>
        <mxCell id="qdV7-tY0-xVl_rMdB6zt-34" style="edgeStyle=orthogonalEdgeStyle;rounded=0;orthogonalLoop=1;jettySize=auto;html=1;fontSize=14;" parent="1" source="qdV7-tY0-xVl_rMdB6zt-18" target="qdV7-tY0-xVl_rMdB6zt-19" edge="1">
          <mxGeometry relative="1" as="geometry" />
        </mxCell>
        <mxCell id="qdV7-tY0-xVl_rMdB6zt-18" value="" style="shape=cube;whiteSpace=wrap;html=1;boundedLbl=1;backgroundOutline=1;darkOpacity=0.05;darkOpacity2=0.1;size=10;fontSize=14;" parent="1" vertex="1">
          <mxGeometry x="430" y="630" width="80" height="50" as="geometry" />
        </mxCell>
        <mxCell id="qdV7-tY0-xVl_rMdB6zt-19" value="" style="shape=cube;whiteSpace=wrap;html=1;boundedLbl=1;backgroundOutline=1;darkOpacity=0.05;darkOpacity2=0.1;size=10;fontSize=14;" parent="1" vertex="1">
          <mxGeometry x="525" y="640" width="61" height="30" as="geometry" />
        </mxCell>
        <mxCell id="qdV7-tY0-xVl_rMdB6zt-20" value="" style="shape=cube;whiteSpace=wrap;html=1;boundedLbl=1;backgroundOutline=1;darkOpacity=0.05;darkOpacity2=0.1;size=0;fontSize=14;" parent="1" vertex="1">
          <mxGeometry x="604" y="651.5" width="45" height="10" as="geometry" />
        </mxCell>
        <mxCell id="qdV7-tY0-xVl_rMdB6zt-22" value="2x2x80" style="text;html=1;align=center;verticalAlign=middle;whiteSpace=wrap;rounded=0;fontSize=14;" parent="1" vertex="1">
          <mxGeometry x="601.5" y="677" width="50" height="20" as="geometry" />
        </mxCell>
        <mxCell id="qdV7-tY0-xVl_rMdB6zt-25" style="edgeStyle=orthogonalEdgeStyle;rounded=0;orthogonalLoop=1;jettySize=auto;html=1;entryX=0.007;entryY=0.478;entryDx=0;entryDy=0;entryPerimeter=0;fontSize=14;" parent="1" source="qdV7-tY0-xVl_rMdB6zt-5" target="qdV7-tY0-xVl_rMdB6zt-3" edge="1">
          <mxGeometry relative="1" as="geometry" />
        </mxCell>
        <mxCell id="qdV7-tY0-xVl_rMdB6zt-26" style="edgeStyle=orthogonalEdgeStyle;rounded=0;orthogonalLoop=1;jettySize=auto;html=1;entryX=0.021;entryY=0.495;entryDx=0;entryDy=0;entryPerimeter=0;fontSize=14;" parent="1" source="qdV7-tY0-xVl_rMdB6zt-3" target="qdV7-tY0-xVl_rMdB6zt-8" edge="1">
          <mxGeometry relative="1" as="geometry" />
        </mxCell>
        <mxCell id="qdV7-tY0-xVl_rMdB6zt-27" style="edgeStyle=orthogonalEdgeStyle;rounded=0;orthogonalLoop=1;jettySize=auto;html=1;entryX=-0.002;entryY=0.499;entryDx=0;entryDy=0;entryPerimeter=0;fontSize=14;" parent="1" source="qdV7-tY0-xVl_rMdB6zt-8" target="qdV7-tY0-xVl_rMdB6zt-16" edge="1">
          <mxGeometry relative="1" as="geometry" />
        </mxCell>
        <mxCell id="qdV7-tY0-xVl_rMdB6zt-28" style="edgeStyle=orthogonalEdgeStyle;rounded=0;orthogonalLoop=1;jettySize=auto;html=1;entryX=-0.009;entryY=0.486;entryDx=0;entryDy=0;entryPerimeter=0;fontSize=14;" parent="1" source="qdV7-tY0-xVl_rMdB6zt-16" target="qdV7-tY0-xVl_rMdB6zt-18" edge="1">
          <mxGeometry relative="1" as="geometry" />
        </mxCell>
        <mxCell id="qdV7-tY0-xVl_rMdB6zt-39" value="" style="endArrow=none;html=1;rounded=0;exitX=0;exitY=0;exitDx=0;exitDy=0;exitPerimeter=0;fontSize=14;" parent="1" source="qdV7-tY0-xVl_rMdB6zt-20" edge="1">
          <mxGeometry width="50" height="50" relative="1" as="geometry">
            <mxPoint x="579" y="671.5" as="sourcePoint" />
            <mxPoint x="601" y="648.5" as="targetPoint" />
          </mxGeometry>
        </mxCell>
        <mxCell id="qdV7-tY0-xVl_rMdB6zt-41" value="" style="endArrow=none;html=1;rounded=0;exitX=0;exitY=0;exitDx=0;exitDy=0;exitPerimeter=0;fontSize=14;" parent="1" edge="1">
          <mxGeometry width="50" height="50" relative="1" as="geometry">
            <mxPoint x="649" y="651.5" as="sourcePoint" />
            <mxPoint x="646" y="648.5" as="targetPoint" />
          </mxGeometry>
        </mxCell>
        <mxCell id="qdV7-tY0-xVl_rMdB6zt-43" value="" style="endArrow=none;html=1;rounded=0;exitX=0;exitY=0;exitDx=0;exitDy=0;exitPerimeter=0;fontSize=14;" parent="1" edge="1">
          <mxGeometry width="50" height="50" relative="1" as="geometry">
            <mxPoint x="604" y="661.5" as="sourcePoint" />
            <mxPoint x="601" y="658.5" as="targetPoint" />
          </mxGeometry>
        </mxCell>
        <mxCell id="qdV7-tY0-xVl_rMdB6zt-44" value="" style="endArrow=none;html=1;rounded=0;fontSize=14;entryX=0.933;entryY=-0.25;entryDx=0;entryDy=0;entryPerimeter=0;" parent="1" edge="1" target="qdV7-tY0-xVl_rMdB6zt-20">
          <mxGeometry width="50" height="50" relative="1" as="geometry">
            <mxPoint x="601" y="648.5" as="sourcePoint" />
            <mxPoint x="646" y="648" as="targetPoint" />
          </mxGeometry>
        </mxCell>
        <mxCell id="qdV7-tY0-xVl_rMdB6zt-45" value="" style="endArrow=none;html=1;rounded=0;exitX=-0.039;exitY=0.733;exitDx=0;exitDy=0;exitPerimeter=0;fontSize=14;" parent="1" source="qdV7-tY0-xVl_rMdB6zt-20" edge="1">
          <mxGeometry width="50" height="50" relative="1" as="geometry">
            <mxPoint x="577" y="670.5" as="sourcePoint" />
            <mxPoint x="601" y="648.5" as="targetPoint" />
          </mxGeometry>
        </mxCell>
        <mxCell id="yzSGWmgfHGHG9VZ8U8GF-1" value="conv(3, 42, 7)" style="text;html=1;align=center;verticalAlign=middle;whiteSpace=wrap;rounded=0;fontSize=14;" vertex="1" parent="1">
          <mxGeometry x="100" y="478" width="103" height="30" as="geometry" />
        </mxCell>
        <mxCell id="yzSGWmgfHGHG9VZ8U8GF-2" value="maxpool(6, 4)" style="text;html=1;align=center;verticalAlign=middle;whiteSpace=wrap;rounded=0;fontSize=14;" vertex="1" parent="1">
          <mxGeometry x="198" y="508" width="102" height="30" as="geometry" />
        </mxCell>
        <mxCell id="yzSGWmgfHGHG9VZ8U8GF-3" value="conv(42, 120, 4)" style="text;html=1;align=center;verticalAlign=middle;whiteSpace=wrap;rounded=0;fontSize=14;" vertex="1" parent="1">
          <mxGeometry x="265" y="539" width="117" height="30" as="geometry" />
        </mxCell>
        <mxCell id="yzSGWmgfHGHG9VZ8U8GF-5" value="maxpool(4, 4)" style="text;html=1;align=center;verticalAlign=middle;whiteSpace=wrap;rounded=0;fontSize=14;" vertex="1" parent="1">
          <mxGeometry x="374" y="555" width="92" height="30" as="geometry" />
        </mxCell>
        <mxCell id="yzSGWmgfHGHG9VZ8U8GF-6" value="conv(120, 80, 4)" style="text;html=1;align=center;verticalAlign=middle;whiteSpace=wrap;rounded=0;fontSize=14;" vertex="1" parent="1">
          <mxGeometry x="455" y="585" width="111" height="30" as="geometry" />
        </mxCell>
        <mxCell id="yzSGWmgfHGHG9VZ8U8GF-7" value="maxpool(4, 4)" style="text;html=1;align=center;verticalAlign=middle;whiteSpace=wrap;rounded=0;fontSize=14;" vertex="1" parent="1">
          <mxGeometry x="554" y="606" width="98" height="30" as="geometry" />
        </mxCell>
        <mxCell id="yzSGWmgfHGHG9VZ8U8GF-37" style="edgeStyle=orthogonalEdgeStyle;rounded=0;orthogonalLoop=1;jettySize=auto;html=1;entryX=1;entryY=0.5;entryDx=0;entryDy=0;" edge="1" parent="1" source="yzSGWmgfHGHG9VZ8U8GF-9" target="yzSGWmgfHGHG9VZ8U8GF-15">
          <mxGeometry relative="1" as="geometry">
            <Array as="points">
              <mxPoint x="758" y="657" />
              <mxPoint x="758" y="710" />
              <mxPoint x="759" y="710" />
              <mxPoint x="759" y="798" />
            </Array>
          </mxGeometry>
        </mxCell>
        <mxCell id="yzSGWmgfHGHG9VZ8U8GF-9" value="" style="shape=cube;whiteSpace=wrap;html=1;boundedLbl=1;backgroundOutline=1;darkOpacity=0.05;darkOpacity2=0.1;size=0;fontSize=14;" vertex="1" parent="1">
          <mxGeometry x="670" y="653.88" width="70" height="5.25" as="geometry" />
        </mxCell>
        <mxCell id="yzSGWmgfHGHG9VZ8U8GF-11" style="edgeStyle=orthogonalEdgeStyle;rounded=0;orthogonalLoop=1;jettySize=auto;html=1;entryX=0.027;entryY=0.424;entryDx=0;entryDy=0;entryPerimeter=0;" edge="1" parent="1" source="qdV7-tY0-xVl_rMdB6zt-19" target="qdV7-tY0-xVl_rMdB6zt-20">
          <mxGeometry relative="1" as="geometry" />
        </mxCell>
        <mxCell id="yzSGWmgfHGHG9VZ8U8GF-12" value="1x1x320" style="text;html=1;align=center;verticalAlign=middle;whiteSpace=wrap;rounded=0;" vertex="1" parent="1">
          <mxGeometry x="675" y="667" width="60" height="30" as="geometry" />
        </mxCell>
        <mxCell id="yzSGWmgfHGHG9VZ8U8GF-13" value="Flatten" style="text;html=1;align=center;verticalAlign=middle;whiteSpace=wrap;rounded=0;" vertex="1" parent="1">
          <mxGeometry x="639" y="621.5" width="60" height="30" as="geometry" />
        </mxCell>
        <mxCell id="yzSGWmgfHGHG9VZ8U8GF-14" style="edgeStyle=orthogonalEdgeStyle;rounded=0;orthogonalLoop=1;jettySize=auto;html=1;entryX=0;entryY=0;entryDx=0;entryDy=2.625;entryPerimeter=0;" edge="1" parent="1" source="qdV7-tY0-xVl_rMdB6zt-20" target="yzSGWmgfHGHG9VZ8U8GF-9">
          <mxGeometry relative="1" as="geometry" />
        </mxCell>
        <mxCell id="yzSGWmgfHGHG9VZ8U8GF-38" style="edgeStyle=orthogonalEdgeStyle;rounded=0;orthogonalLoop=1;jettySize=auto;html=1;entryX=1;entryY=0.5;entryDx=0;entryDy=0;" edge="1" parent="1" source="yzSGWmgfHGHG9VZ8U8GF-15" target="yzSGWmgfHGHG9VZ8U8GF-19">
          <mxGeometry relative="1" as="geometry" />
        </mxCell>
        <mxCell id="yzSGWmgfHGHG9VZ8U8GF-15" value="" style="rounded=0;whiteSpace=wrap;html=1;flipH=0;flipV=1;" vertex="1" parent="1">
          <mxGeometry x="699" y="760" width="8" height="76.5" as="geometry" />
        </mxCell>
        <mxCell id="yzSGWmgfHGHG9VZ8U8GF-40" style="edgeStyle=orthogonalEdgeStyle;rounded=0;orthogonalLoop=1;jettySize=auto;html=1;entryX=1;entryY=0.5;entryDx=0;entryDy=0;" edge="1" parent="1" source="yzSGWmgfHGHG9VZ8U8GF-19" target="yzSGWmgfHGHG9VZ8U8GF-20">
          <mxGeometry relative="1" as="geometry" />
        </mxCell>
        <mxCell id="yzSGWmgfHGHG9VZ8U8GF-19" value="" style="rounded=0;whiteSpace=wrap;html=1;flipH=0;flipV=1;" vertex="1" parent="1">
          <mxGeometry x="649" y="768.25" width="8" height="60" as="geometry" />
        </mxCell>
        <mxCell id="yzSGWmgfHGHG9VZ8U8GF-41" style="edgeStyle=orthogonalEdgeStyle;rounded=0;orthogonalLoop=1;jettySize=auto;html=1;entryX=1;entryY=0.5;entryDx=0;entryDy=0;" edge="1" parent="1" source="yzSGWmgfHGHG9VZ8U8GF-20" target="yzSGWmgfHGHG9VZ8U8GF-23">
          <mxGeometry relative="1" as="geometry" />
        </mxCell>
        <mxCell id="yzSGWmgfHGHG9VZ8U8GF-20" value="" style="rounded=0;whiteSpace=wrap;html=1;flipH=0;flipV=1;" vertex="1" parent="1">
          <mxGeometry x="593" y="773.79" width="8" height="48.93" as="geometry" />
        </mxCell>
        <mxCell id="yzSGWmgfHGHG9VZ8U8GF-23" value="" style="rounded=0;whiteSpace=wrap;html=1;fillColor=#F84B0C;strokeColor=#b85450;flipH=0;flipV=1;" vertex="1" parent="1">
          <mxGeometry x="551" y="785.13" width="3" height="26.25" as="geometry" />
        </mxCell>
        <mxCell id="yzSGWmgfHGHG9VZ8U8GF-29" value="Dense(256, 320)" style="text;html=1;align=center;verticalAlign=middle;whiteSpace=wrap;rounded=0;flipH=0;flipV=1;" vertex="1" parent="1">
          <mxGeometry x="665" y="845" width="98" height="30" as="geometry" />
        </mxCell>
        <mxCell id="yzSGWmgfHGHG9VZ8U8GF-30" value="Dense(128, 256)" style="text;html=1;align=center;verticalAlign=middle;whiteSpace=wrap;rounded=0;flipH=0;flipV=1;" vertex="1" parent="1">
          <mxGeometry x="606" y="730" width="98" height="30" as="geometry" />
        </mxCell>
        <mxCell id="yzSGWmgfHGHG9VZ8U8GF-31" value="Dense(32, 128)" style="text;html=1;align=center;verticalAlign=middle;whiteSpace=wrap;rounded=0;flipH=0;flipV=1;" vertex="1" parent="1">
          <mxGeometry x="545" y="836.5" width="98" height="30" as="geometry" />
        </mxCell>
        <mxCell id="yzSGWmgfHGHG9VZ8U8GF-32" value="Feature vector 32" style="text;html=1;align=center;verticalAlign=middle;whiteSpace=wrap;rounded=0;fontColor=#F84B0C;flipH=0;flipV=1;" vertex="1" parent="1">
          <mxGeometry x="510" y="747.7900000000001" width="60" height="30" as="geometry" />
        </mxCell>
        <mxCell id="yzSGWmgfHGHG9VZ8U8GF-42" value="" style="ellipse;whiteSpace=wrap;html=1;" vertex="1" parent="1">
          <mxGeometry x="595" y="776" width="4" height="4" as="geometry" />
        </mxCell>
        <mxCell id="yzSGWmgfHGHG9VZ8U8GF-43" value="" style="ellipse;whiteSpace=wrap;html=1;" vertex="1" parent="1">
          <mxGeometry x="595" y="781.13" width="4" height="4" as="geometry" />
        </mxCell>
        <mxCell id="yzSGWmgfHGHG9VZ8U8GF-44" value="" style="ellipse;whiteSpace=wrap;html=1;" vertex="1" parent="1">
          <mxGeometry x="595" y="788" width="4" height="4" as="geometry" />
        </mxCell>
        <mxCell id="yzSGWmgfHGHG9VZ8U8GF-45" value="" style="ellipse;whiteSpace=wrap;html=1;" vertex="1" parent="1">
          <mxGeometry x="595" y="796.26" width="4" height="4" as="geometry" />
        </mxCell>
        <mxCell id="yzSGWmgfHGHG9VZ8U8GF-46" value="" style="ellipse;whiteSpace=wrap;html=1;" vertex="1" parent="1">
          <mxGeometry x="595" y="804" width="4" height="4" as="geometry" />
        </mxCell>
        <mxCell id="yzSGWmgfHGHG9VZ8U8GF-47" value="" style="ellipse;whiteSpace=wrap;html=1;" vertex="1" parent="1">
          <mxGeometry x="595" y="816" width="4" height="4" as="geometry" />
        </mxCell>
        <mxCell id="yzSGWmgfHGHG9VZ8U8GF-48" value="" style="ellipse;whiteSpace=wrap;html=1;" vertex="1" parent="1">
          <mxGeometry x="595" y="811.38" width="4" height="4" as="geometry" />
        </mxCell>
        <mxCell id="yzSGWmgfHGHG9VZ8U8GF-49" value="" style="ellipse;whiteSpace=wrap;html=1;" vertex="1" parent="1">
          <mxGeometry x="651" y="822.72" width="4" height="4" as="geometry" />
        </mxCell>
        <mxCell id="yzSGWmgfHGHG9VZ8U8GF-50" value="" style="ellipse;whiteSpace=wrap;html=1;" vertex="1" parent="1">
          <mxGeometry x="651" y="818.72" width="4" height="4" as="geometry" />
        </mxCell>
        <mxCell id="yzSGWmgfHGHG9VZ8U8GF-51" value="" style="ellipse;whiteSpace=wrap;html=1;" vertex="1" parent="1">
          <mxGeometry x="651" y="812" width="4" height="4" as="geometry" />
        </mxCell>
        <mxCell id="yzSGWmgfHGHG9VZ8U8GF-52" value="" style="ellipse;whiteSpace=wrap;html=1;" vertex="1" parent="1">
          <mxGeometry x="651" y="807.38" width="4" height="4" as="geometry" />
        </mxCell>
        <mxCell id="yzSGWmgfHGHG9VZ8U8GF-53" value="" style="ellipse;whiteSpace=wrap;html=1;" vertex="1" parent="1">
          <mxGeometry x="651" y="800.26" width="4" height="4" as="geometry" />
        </mxCell>
        <mxCell id="yzSGWmgfHGHG9VZ8U8GF-54" value="" style="ellipse;whiteSpace=wrap;html=1;" vertex="1" parent="1">
          <mxGeometry x="651" y="796" width="4" height="4" as="geometry" />
        </mxCell>
        <mxCell id="yzSGWmgfHGHG9VZ8U8GF-55" value="" style="ellipse;whiteSpace=wrap;html=1;" vertex="1" parent="1">
          <mxGeometry x="651" y="788" width="4" height="4" as="geometry" />
        </mxCell>
        <mxCell id="yzSGWmgfHGHG9VZ8U8GF-56" value="" style="ellipse;whiteSpace=wrap;html=1;" vertex="1" parent="1">
          <mxGeometry x="651" y="781.13" width="4" height="4" as="geometry" />
        </mxCell>
        <mxCell id="yzSGWmgfHGHG9VZ8U8GF-57" value="" style="ellipse;whiteSpace=wrap;html=1;" vertex="1" parent="1">
          <mxGeometry x="651" y="773.79" width="4" height="4" as="geometry" />
        </mxCell>
        <mxCell id="yzSGWmgfHGHG9VZ8U8GF-58" value="" style="ellipse;whiteSpace=wrap;html=1;" vertex="1" parent="1">
          <mxGeometry x="701" y="828.9300000000001" width="4" height="4" as="geometry" />
        </mxCell>
        <mxCell id="yzSGWmgfHGHG9VZ8U8GF-59" value="" style="ellipse;whiteSpace=wrap;html=1;" vertex="1" parent="1">
          <mxGeometry x="701" y="822.72" width="4" height="4" as="geometry" />
        </mxCell>
        <mxCell id="yzSGWmgfHGHG9VZ8U8GF-60" value="" style="ellipse;whiteSpace=wrap;html=1;" vertex="1" parent="1">
          <mxGeometry x="701" y="814.72" width="4" height="4" as="geometry" />
        </mxCell>
        <mxCell id="yzSGWmgfHGHG9VZ8U8GF-61" value="" style="ellipse;whiteSpace=wrap;html=1;" vertex="1" parent="1">
          <mxGeometry x="701" y="807.38" width="4" height="4" as="geometry" />
        </mxCell>
        <mxCell id="yzSGWmgfHGHG9VZ8U8GF-62" value="" style="ellipse;whiteSpace=wrap;html=1;" vertex="1" parent="1">
          <mxGeometry x="701" y="800.26" width="4" height="4" as="geometry" />
        </mxCell>
        <mxCell id="yzSGWmgfHGHG9VZ8U8GF-63" value="" style="ellipse;whiteSpace=wrap;html=1;" vertex="1" parent="1">
          <mxGeometry x="701" y="796" width="4" height="4" as="geometry" />
        </mxCell>
        <mxCell id="yzSGWmgfHGHG9VZ8U8GF-64" value="" style="ellipse;whiteSpace=wrap;html=1;" vertex="1" parent="1">
          <mxGeometry x="701" y="788" width="4" height="4" as="geometry" />
        </mxCell>
        <mxCell id="yzSGWmgfHGHG9VZ8U8GF-65" value="" style="ellipse;whiteSpace=wrap;html=1;" vertex="1" parent="1">
          <mxGeometry x="701" y="764.25" width="4" height="4" as="geometry" />
        </mxCell>
        <mxCell id="yzSGWmgfHGHG9VZ8U8GF-66" value="" style="ellipse;whiteSpace=wrap;html=1;" vertex="1" parent="1">
          <mxGeometry x="701" y="777.79" width="4" height="4" as="geometry" />
        </mxCell>
        <mxCell id="yzSGWmgfHGHG9VZ8U8GF-67" value="" style="ellipse;whiteSpace=wrap;html=1;" vertex="1" parent="1">
          <mxGeometry x="701" y="770.25" width="4" height="4" as="geometry" />
        </mxCell>
      </root>
    </mxGraphModel>
  </diagram>
</mxfile>
